<?xml version="1.0" encoding="UTF-8"?>
<svg width="280px" height="280px" viewBox="0 0 280 280" version="1.1" xmlns="http://www.w3.org/2000/svg" xmlns:xlink="http://www.w3.org/1999/xlink">
    <!-- Generator: Sketch 44.1 (41455) - http://www.bohemiancoding.com/sketch -->
    <title>QR Code</title>
    <desc>Created with Sketch.</desc>
    <defs></defs>
    <g id="DropPay-Secure-Operations" stroke="none" stroke-width="1" fill="none" fill-rule="evenodd">
        <g id="WebApp/Secure/Operations/02g---Invio-di-denaro,-codice-QR" transform="translate(-128.000000, -156.000000)">
            <g id="New-POS-dialog" transform="translate(24.000000, 24.000000)">
                <g id="QR" transform="translate(76.000000, 104.000000)">
                    <g id="QR-Code">
                        <rect id="card" x="0" y="0" width="336" height="336"></rect>
                        <path d="M168,42 L154,42 L154,28 L196,28 L196,42 L182,42 L182,56 L168,56 L168,42 Z M182,56 L196,56 L196,70 L182,70 L182,56 Z M196,70 L210,70 L210,84 L196,84 L196,70 Z M196,42 L210,42 L210,56 L196,56 L196,42 Z M126,98 L140,98 L140,112 L126,112 L126,98 Z M28,126 L70,126 L70,140 L28,140 L28,126 Z M98,126 L112,126 L112,140 L98,140 L98,126 Z M266,196 L280,196 L280,210 L266,210 L266,196 Z M294,196 L308,196 L308,210 L294,210 L294,196 Z M294,280 L308,280 L308,294 L294,294 L294,280 Z M266,294 L280,294 L280,308 L266,308 L266,294 Z M224,280 L238,280 L238,294 L252,294 L252,308 L224,308 L224,280 Z M126,252 L140,252 L140,224 L154,224 L154,238 L168,238 L168,252 L182,252 L182,266 L140,266 L140,308 L126,308 L126,252 Z M182,266 L196,266 L196,280 L182,280 L182,266 Z M182,238 L196,238 L196,252 L182,252 L182,238 Z M210,266 L224,266 L224,280 L210,280 L210,266 Z M196,280 L210,280 L210,308 L196,308 L196,280 Z M126,196 L140,196 L140,210 L126,210 L126,196 Z M140,182 L154,182 L154,196 L140,196 L140,182 Z M238,168 L266,168 L266,182 L238,182 L238,168 Z M28,154 L56,154 L56,168 L28,168 L28,154 Z M70,196 L98,196 L98,210 L70,210 L70,196 Z M28,182 L56,182 L56,168 L70,168 L70,196 L28,196 L28,182 Z M168,84 L140,84 L140,98 L154,98 L154,112 L168,112 L168,98 L182,98 L182,112 L168,112 L168,126 L126,126 L126,140 L154,140 L154,182 L182,182 L182,154 L196,154 L196,168 L210,168 L210,154 L224,154 L224,168 L238,168 L238,154 L266,154 L266,140 L280,140 L280,126 L238,126 L238,140 L210,140 L210,126 L196,126 L196,84 L182,84 L182,70 L168,70 L168,84 Z M280,224 L294,224 L294,238 L280,238 L280,252 L294,252 L294,266 L280,266 L280,280 L266,280 L266,224 L280,224 Z M196,224 L154,224 L154,196 L182,196 L182,210 L196,210 L196,224 Z M224,196 L182,196 L182,182 L224,182 L224,196 Z M84,154 L70,154 L70,168 L84,168 L84,182 L98,182 L98,168 L112,168 L112,182 L98,182 L98,196 L126,196 L126,168 L140,168 L140,154 L98,154 L98,140 L84,140 L84,154 Z M140,70 L140,84 L126,84 L126,42 L154,42 L154,70 L140,70 Z M294,154 L294,126 L308,126 L308,182 L294,182 L294,168 L266,168 L266,154 L294,154 Z M28,28 L112,28 L112,112 L28,112 L28,28 Z M98,98 L98,42 L42.0597114,42 C42.0362016,42 42,98 42,98 L98,98 Z M56,56 L84,56 L84,84 L56,84 L56,56 Z M224,28 L308,28 L308,112 L224,112 L224,28 Z M238,98 L294,98 L294,42.0597114 C294,42.0362016 238,42 238,42 L238,98 Z M252,56 L280,56 L280,84 L252,84 L252,56 Z M28,224 L112,224 L112,308 L28,308 L28,224 Z M42,293.940289 C42,293.963798 98,294 98,294 L98,238 L42,238 L42,293.940289 Z M56,252 L84,252 L84,280 L56,280 L56,252 Z M196,196 L266,196 L266,266 L196,266 L196,196 Z M210,252 L252,252 L252,210 L210,210 L210,252 Z M224,224 L238,224 L238,238 L224,238 L224,224 Z" id="QR-Mask" fill="#000000"></path>
                    </g>
                </g>
            </g>
        </g>
    </g>
</svg>