<?xml version="1.0" encoding="utf-8"?>
<!-- Generator: Adobe Illustrator 17.0.0, SVG Export Plug-In . SVG Version: 6.00 Build 0)  -->
<!DOCTYPE svg PUBLIC "-//W3C//DTD SVG 1.1 Basic//EN" "http://www.w3.org/Graphics/SVG/1.1/DTD/svg11-basic.dtd">
<svg version="1.1" baseProfile="basic" id="Livello_1"
	 xmlns="http://www.w3.org/2000/svg" xmlns:xlink="http://www.w3.org/1999/xlink" x="0px" y="0px" width="350px" height="350px"
	 viewBox="0 0 350 350" xml:space="preserve">
<path d="M209.202,90.93c0-6.537,0-13.074,0-20.345c-2.487-0.152-5.024-0.306-7.945-0.484c0,3.366,0,6.383,0,9.927
	c-3.568,0-6.812,0-10.73,0c0-6.63,0-13.427,0-20.224c3.284,0,6.569,0,10.375,0c0-3.072,0-5.686,0.144-8.452
	c2.49-0.152,5.11-0.152,7.718-0.152c0-3.528,0-6.729,0-9.841c-2.731,0-5.009,0-7.574,0c0,3.513,0,6.829-0.144,9.993
	c-3.602,0.152-7.06,0.152-10.519,0.152c0-6.804,0-13.608,0-20.833c-3.946,0.174-7.179,0.317-10.749,0.474c0,3.719,0,6.729,0,9.788
	c-6.827,0-13.279,0-20.376,0c0-10.432,0-20.682,0-30.932c6.917,0,13.833,0,20.75,0c0,3.319,0,6.639,0,10.376
	c7.304,0,14.027,0,20.894,0.152c0.144,3.164,0.144,6.467,0.144,9.785c2.817,0,5.34,0,7.797,0c0-3.405,0-6.37,0-9.633
	c-2.831,0-5.456,0-7.941-0.152c-0.144-3.61-0.144-7.069-0.144-10.527c6.225,0,12.45,0,18.675,0c0,3.359,0,6.717,0,10.466
	c3.956-0.178,7.184-0.324,10.375-0.468c0-3.81,0-6.904,0-9.998c3.458,0,6.917,0,10.375,0c0,6.917,0,13.834-0.148,20.899
	c-3.172,0.148-6.492,0.148-9.788,0.148c0,3.526,0,6.733,0,9.857c3.411,0,6.38,0,9.64,0c0-3.509,0-6.831,0.148-10.005
	c3.243-0.148,6.338-0.148,10.139-0.148c0.213,3.193,0.43,6.444,0.671,10.041c2.365,0,4.667,0,7.503,0c0,13.225,0,26.117,0,39.388
	c-2.08,0-4.386,0-7.425,0c-0.191-2.817-0.412-6.066-0.68-10.002c-3.343,0-6.702,0-10.061,0c0-3.095,0-6.191,0-9.993
	c3.194-0.213,6.445-0.429,10.033-0.668c0-2.374,0-4.686,0-7.506c-6.339,0-13.033,0-20.092,0c0,2.167,0,4.479,0,7.472
	c-3.567,0.186-6.829,0.356-10.691,0.557c0,10.414,0,20.651,0,30.889C216.118,90.93,212.66,90.93,209.202,90.93z"/>
<path d="M339.928,10c0,23.153,0,46.305,0,69.458c-0.23,0.25-0.429,0.546-0.701,0.737c-0.254,0.178-0.586,0.345-0.884,0.345
	c-22.759,0.016-45.517,0.014-68.966,0.014c0-23.744,0-47.149,0-70.554C292.894,10,316.411,10,339.928,10z M279.927,69.821
	c17.056,0,33.185,0,49.625,0c0-16.193,0.002-32.03-0.015-47.867c0-0.297-0.17-0.628-0.349-0.881
	c-0.191-0.271-0.487-0.468-0.346-0.338c-16.521,0-32.651,0-48.915,0C279.927,37.225,279.927,53.359,279.927,69.821z"/>
<path d="M80.551,10c0,23.153,0,46.305,0,69.458c-0.23,0.25-0.429,0.546-0.701,0.737c-0.254,0.178-0.586,0.345-0.884,0.345
	C56.207,80.556,33.448,80.554,10,80.554C10,56.81,10,33.405,10,10C33.517,10,57.034,10,80.551,10z M69.999,20.735
	c-17.058,0-33.187,0-49.624,0c0,16.195-0.002,32.032,0.015,47.869c0,0.297,0.172,0.628,0.351,0.88
	c0.192,0.27,0.488,0.466,0.344,0.335c16.524,0,32.653,0,48.914,0C69.999,53.326,69.999,37.193,69.999,20.735z"/>
<path d="M101.301,70.179c0-3.112,0-6.224,0-9.912c2.527-0.248,5.116-0.501,7.995-0.783c0-2.425,0-4.745,0-7.797
	c-5.807,0-11.866,0-18.126,0c0-7.196,0-13.666,0-20.537c2.97,0,5.986,0,9.753,0c0.197,2.797,0.426,6.054,0.678,9.642
	c2.38,0,4.701,0,7.755,0c0.13-2.954,0.275-6.229,0.435-9.856c3.302,0,6.316,0,9.757,0c0-3.605,0-6.861,0-10.498
	c-3.192,0-6.204,0-9.948,0c0-3.687,0-7.062,0-10.436c6.917,0,13.833,0,20.75,0c0,6.797,0,13.595,0,20.469
	c3.909,0.238,7.168,0.437,10.73,0.654c0,3.699,0,6.716,0,9.698c3.595,0.259,6.839,0.493,10.02,0.723c0,6.562,0,12.411,0,18.26
	c-3.458,0-6.917,0-10.375,0c0-2.657,0-5.314,0-8.391c-3.953,0.177-7.187,0.322-10.375,0.465c0,3.117,0,5.522,0,7.926
	c-3.319,0-6.638,0-10.375,0c0,7.304,0,14.028,0,20.751c-3.458,0-6.917,0-10.375,0c0-3.284,0-6.569,0-10.376
	C106.529,70.179,103.915,70.179,101.301,70.179z"/>
<path fill="#FFFFFF" d="M151.101,59.803c0-5.849,0-11.698,0-18.26c-3.181-0.23-6.424-0.464-10.02-0.723c0-2.982,0-5.999,0-9.698
	c-3.562-0.217-6.822-0.416-10.73-0.654c0-6.875,0-13.672,0-20.469c3.458,0,6.917,0,10.375,0c0,3.359,0,6.717,0,10.466
	c3.956-0.178,7.184-0.324,10.375-0.468c0-3.81,0-6.904,0-9.998c2.767,0,5.533,0,8.3,0c0,10.25,0,20.501,0,30.932
	c7.097,0,13.549,0,20.376,0c0-3.059,0-6.069,0-9.788c3.57-0.157,6.803-0.3,10.749-0.474c0,7.224,0,14.029,0,20.833
	c-3.284,0-6.569,0-10.375,0c0,3.072,0,5.686,0,8.301c-3.352,0-6.704,0-9.982,0c-0.351-3.234-0.629-5.799-0.863-7.952
	c-3.602,0-6.61,0-9.538,0c-0.319,2.902-0.601,5.459-0.875,7.952C155.903,59.803,153.502,59.803,151.101,59.803z"/>
<path fill="#FFFFFF" d="M200.902,10c0,3.459,0,6.917,0,10.376c-6.723,0-13.446,0-20.75,0c0-3.737,0-7.056,0-10.376
	C187.068,10,193.985,10,200.902,10z"/>
<path fill="#FFFFFF" d="M229.952,10c0,3.094,0,6.189,0,9.998c-3.191,0.144-6.419,0.289-10.375,0.468c0-3.749,0-7.107,0-10.466
	C223.035,10,226.493,10,229.952,10z"/>
<path d="M151.101,10c0,3.094,0,6.189,0,9.998c-3.191,0.144-6.419,0.289-10.375,0.468c0-3.749,0-7.107,0-10.466
	C144.184,10,147.643,10,151.101,10z"/>
<path d="M259.002,10c0,3.093,0,6.186,0,10.006c-2.499,0.137-5.043,0.277-8.3,0.456c0-3.748,0-7.105,0-10.462
	C253.469,10,256.235,10,259.002,10z"/>
<path d="M329.553,140.733c0,3.107,0,6.215,0,10.033c3.208,0.191,6.494,0.386,10.059,0.598c0,9.368,0,18.597,0,28.312
	c-2.984,0-6.237,0-9.863,0c0-6.454,0-12.923,0-19.828c-7.049,0-13.756,0-20.828,0c0,6.578,0,13.048,0,20.233
	c-6.349,0-12.399,0-18.597,0c0,7.183,0,13.645,0,20.83c3.438,0,6.808,0,10.178,0c0,2.401,0,4.802,0,7.906
	c-3.184,0.219-6.427,0.441-10.02,0.688c0,2.987,0,5.995,0,9.696c-3.544,0.158-6.77,0.301-10.381,0.462c0-3.376,0-6.38,0-9.92
	c-3.551,0-6.786,0-10.381,0c0,2.778,0,5.788,0,9.473c-3.544,0.216-6.798,0.414-10.718,0.653c0,3.388,0,6.741,0,10.093
	c-2.658,0-5.316,0-7.985,0c-0.268,3.939-0.489,7.187-0.706,10.376c-3.799,0-6.891,0-10.132-0.148
	c-0.148-3.173-0.148-6.491-0.148-9.789c-3.52,0-6.732,0-9.856,0c0,3.411,0,6.381,0,9.641c3.509,0,6.831,0,10.004,0.148
	c0.148,6.206,0.148,12.264,0.148,18.982c-3.745,0-6.97,0-10.484,0c0,3.652,0,6.629,0,10.218c-3.606,0-6.936,0-10.267,0
	c0-3.367,0-6.733,0-10.034c-3.952-0.295-7.196-0.537-9.975-0.745c0-3.056,0-5.36,0-8.017c3.406,0,6.413,0,9.533,0
	c0-3.62,0-6.87,0-10.46c-3.451,0-6.459,0-10.179,0c0-3.595,0-6.859,0-9.847c-3.039,0-5.354,0-7.788,0
	c-0.221,3.579-0.423,6.842-0.622,10.051c-3.813,0-6.916,0-10.019,0c0-6.764,0-13.527,0-20.751c-10.745,0-20.935,0-31.125,0
	c0-5.851,0-11.701,0-18.167c-2.486-0.276-5.044-0.559-8.3-0.921c0-3.242,0-6.603,0-9.965c2.657,0,5.314,0,8.391,0
	c-0.177-3.953-0.322-7.188-0.465-10.376c-3.117,0-5.521,0-7.926,0c0-3.293,0-6.586,0-10.376c-3.786,0-7.081,0-10.375,0
	c0-3.098,0-6.197,0-9.905c4.567-0.978,9.311-0.326,13.985-0.444c4.776-0.12,9.558-0.027,14.698-0.027c0,3.261,0,6.278,0,9.979
	c3.568,0.232,6.827,0.443,10.406,0.676c0,9.966,0,19.862,0,30.489c-2.859,0.19-6.113,0.406-9.699,0.644c0,2.382,0,4.695,0,7.512
	c12.573,0,25.474,0,39.086,0c0-2.474,0-5.135,0-7.797c3.458,0,6.917,0,10.375,0c0,6.116,0,12.232,0,18.766
	c3.952-0.18,7.188-0.327,10.375-0.473c0-6.579,0-12.436,0-18.293c3.458,0,6.917,0,10.375,0c0,6.103,0,12.205,0,18.162
	c3.916,0,7.146,0,10.71,0c0-3.528,0-6.541,0-9.495c2.905-0.322,5.469-0.605,7.965-0.881c0-2.976,0-5.381,0-7.786
	c6.798,0,13.596,0,20.221,0c0-3.93,0-7.159,0-10.733c-3.546,0-6.563,0-9.846,0c0-3.751,0.046-7.15-0.013-10.547
	c-0.058-3.303-0.223-6.605-0.339-9.847c-3.83,0-6.926,0-10.023,0c0-3.459,0-6.917,0.152-10.519c3.162-0.144,6.476-0.144,9.785-0.144
	c0-2.818,0-5.34,0-7.798c-3.41,0-6.371,0-9.633,0c0,2.831,0,5.457-0.152,7.941c-2.778,0.144-5.405,0.144-8.18,0.144
	c-0.232-3.12-0.422-5.667-0.63-8.468c-3.517,0-6.483,0-10.016,0c0-3.581,0-6.895,0-10.208c3.293,0,6.586,0,10.375,0
	c0-3.786,0-7.081,0-10.376c9.479,0,18.957,0,29.05,0c0-3.711,0-7.043,0-10.376c3.094,0,6.187,0,9.987,0
	c0.215,3.191,0.435,6.44,0.677,10.03c5.786,0,11.543,0,17.884,0c1.123,6.933,0.011,13.716,0.754,20.732c3.008,0,6.02,0,9.763,0
	c0.189-2.828,0.407-6.082,0.669-10.01C322.837,140.733,326.195,140.733,329.553,140.733z M279.94,151.46c3.877,0,6.892,0,10.26,0
	c-0.17,2.918-0.317,5.458-0.484,8.325c-3.718,0-6.713,0-9.76,0c0,3.375,0,6.373,0,9.626c6.892,0,13.576,0,20.547,0
	c0-5.142,0.09-9.918-0.026-14.69c-0.113-4.675,0.514-9.416-0.36-13.658c-7.118,0-13.565,0-20.177,0
	C279.94,144.392,279.94,147.39,279.94,151.46z"/>
<path d="M59.8,180.161c0,3.082,0,6.164,0,9.952c4.866,0.939,9.912,0.283,14.889,0.398c5.114,0.118,10.232,0.026,15.98,0.026
	c0,9.541,0,18.974,0,29.052c3.937,0,7.284,0,10.632,0c0,6.917,0,13.834,0,20.751c-3.458,0-6.917,0-10.375,0
	c0-3.293,0-6.586,0-10.376c-3.786,0-7.081,0-10.523-0.148c-0.148-3.173-0.148-6.492-0.148-9.789c-3.526,0-6.732,0-9.856,0
	c0,3.411,0,6.381,0,9.641c3.509,0,6.831,0,10.004,0.148c0.148,3.606,0.148,7.065,0.148,10.523c-3.293,0-6.586,0-10.375,0
	c0,3.786,0,7.081,0,10.376c-3.09,0-6.18,0-9.975,0c-0.221-3.184-0.447-6.427-0.697-10.021c-2.334,0-4.641,0-7.637,0
	c0,5.602,0,11.606,0,17.964c-3.642,0-6.652,0-10.268,0c-0.236-2.143-0.519-4.707-0.875-7.943c-3.264,0-6.619,0-10.11-0.16
	c-0.136-6.598-0.136-13.356-0.136-20.151c-3.513,0-6.74,0-9.903,0c0,6.854,0,13.265,0,19.991c3.497,0,6.837,0,10.04,0.16
	c0.136,2.57,0.136,4.981,0.136,8.114c-3.25,0.114-6.559,0.277-9.869,0.333c-3.399,0.058-6.799,0.013-10.534,0.013
	c0-12.98,0-25.629,0-39.022c2.83-0.21,6.071-0.451,9.669-0.719c0-2.968,0-5.987,0-9.733c-2.849-0.174-6.11-0.373-9.689-0.591
	c0-19.228,0-38.333,0-57.776c6.752,0,13.209,0,20.04,0c0-3.297,0-6.302,0-10.057c-2.801-0.2-6.048-0.432-9.992-0.713
	c0-3.321,0-6.684,0-10.047c3.32,0,6.639,0,10.231,0c0-3.556,0-6.526,0-10.16c3.497,0,6.712,0,10.519,0c0-3.952,0-7.272,0-10.592
	c3.458,0,6.917,0,10.375,0c0,6.768,0,13.537,0,20.983c-3.811,0-7.047,0-10.1,0c0,3.694,0,6.678,0,9.725c6.262,0,12.238,0,18.288,0
	c0.419-7.053-0.355-13.773,0.468-20.333c3.861,0,6.94,0,10.019,0c0,3.293,0,6.586,0,10.376c3.786,0,7.081,0,10.375,0
	c0,3.107,0,6.215,0,10.033c-3.216,0.191-6.485,0.386-10.059,0.598c0,3.138,0,6.155,0,9.888c9.913,0,20.095,0,30.611,0
	c0,6.477,0,12.253,0,18.757c2.914,0,5.476,0,8.269,0c0,7.186,0,13.649,0,20.509c-2.316,0-4.612,0-7.69,0
	c-0.198-2.797-0.428-6.05-0.706-9.982C87.239,180.161,73.52,180.161,59.8,180.161c0-3.459,0-6.917,0-10.506
	c10.206-0.131,20.413-0.131,30.684-0.131c0-3.51,0-6.744,0-10.114c-5.557,0-10.676-0.091-15.789,0.026
	c-4.978,0.114-10.026-0.539-14.895,0.396c0,3.788,0,6.87,0,9.823c-2.66,0.131-5.32,0.131-8.665,0.131c0-6.706,0-12.715,0-18.317
	c-3.716,0-6.732,0-9.666,0c-0.969,6.308,0.401,12.438-0.794,18.317c-3.734,0-6.829,0-10.072-0.148
	c-0.148-3.173-0.148-6.492-0.148-9.789c-3.526,0-6.732,0-9.856,0c0,3.411,0,6.381,0,9.641c3.509,0,6.831,0,10.004,0.148
	c0.148,7.065,0.148,13.982,0.148,20.899c-3.358,0-6.717,0-10.465,0c0.178,3.952,0.324,7.187,0.468,10.376c3.81,0,6.904,0,9.998,0
	c0,2.629,0,5.259,0,8.535c3.826,0,7.039,0,10.53,0c0,3.628,0,6.596,0,10.141c3.587,0,6.904,0,10.364,0.152
	c0.144,3.162,0.144,6.476,0.144,9.785c2.817,0,5.34,0,7.797,0c0-3.41,0-6.371,0-9.633c-2.807,0-5.446,0-7.941-0.152
	c-0.144-6.213-0.144-12.274-0.144-18.828c-7.262,0-14.006,0-20.75,0c0-3.459,0-6.917,0-10.376c3.362,0,6.724,0,10.049,0
	c0.278-3.939,0.509-7.199,0.733-10.376C48.097,180.161,53.948,180.161,59.8,180.161z M80.368,201.263c-7.375,0-13.816,0-20.64,0
	c0.169,2.931,0.315,5.462,0.438,7.599c7.191,0,13.632,0,20.202,0C80.368,206.203,80.368,203.894,80.368,201.263z"/>
<path d="M269.377,240.34c3.074,0,6.149,0,9.938,0c0.229-3.154,0.462-6.376,0.724-9.987c3.187,0,6.413,0,9.932,0
	c0,6.617,0,13.035,0,19.906c6.231,0,12.203,0,18.832,0c0-3.237,0-6.578,0-9.919c3.358,0,6.717,0,10.064,0
	c0.265-3.934,0.483-7.184,0.698-10.376c3.8,0,6.894,0,9.989,0c0,6.57,0,13.14,0,20.422c-3.23,0.184-6.512,0.37-10.069,0.573
	c0,2.5,0,4.82,0,7.873c3.082,0,6.361,0,9.947,0c0,3.74,0,6.753,0,10.163c3.339,0,6.355,0,10.087,0
	c0.165,3.59,0.315,6.832,0.482,10.468c-6.892,0-13.37,0-20.334,0c0,3.6,0,6.857,0,10.498c3.002,0,6.019,0,9.46,0
	c0,3.606,0,6.861,0,10.498c-9.416,0-18.658,0-28.624,0c0,3.019,0,5.69,0,8.361c-3.352,0-6.704,0-9.982,0
	c-0.351-3.234-0.629-5.799-0.863-7.952c-3.602,0-6.61,0-9.538,0c-0.32,2.906-0.601,5.463-0.914,8.312c-3.556,0-6.558,0-9.527,0
	c-0.255,3.593-0.485,6.837-0.711,10.015c-3.792,0-6.879,0-9.966,0c0-6.028,0-12.057,0-18.676c-3.05,0-5.675,0-8.3,0
	c0-16.476,0-32.952,0-50.14c6.664,0,12.697,0,18.675,0C269.377,246.551,269.377,243.445,269.377,240.34z M259.174,289.796
	c10.805,0,20.715,0,30.953,0c0-5.467,0.081-10.596-0.023-15.722c-0.102-5.032,0.482-10.122-0.304-14.712c-10.651,0-20.56,0-30.626,0
	C259.174,269.617,259.174,279.525,259.174,289.796z M300.834,269.578c0,7.322,0,13.768,0,20.628
	c2.921-0.149,5.463-0.278,7.636-0.388c0-7.184,0-13.63,0-20.239C305.83,269.578,303.522,269.578,300.834,269.578z"/>
<path d="M219.725,319.047c-5.99,0.148-11.833,0.148-18.278,0.148c-1.45-5.844,0.186-11.981-0.933-18.619c-3.11,0-6.357,0-9.95,0
	c0-3.707,0-6.706,0-10.068c-6.764,0-13.197,0-20.378,0c-0.211,2.806-0.453,6.041-0.724,9.643c-2.945,0-5.951,0-9.694,0
	c-0.193-2.821-0.414-6.068-0.683-10.008c-2.668,0-5.326,0-7.984,0c0-3.293,0-6.586,0-10.376c-3.786,0-7.081,0-10.375,0
	c0-3.459,0-6.917,0-10.376c6.225,0,12.45,0,18.675,0c0,3.332,0,6.665,0,9.964c7.27,0,13.911,0,20.852,0c0-3.389,0-6.368,0-9.964
	c3.609,0,6.942,0,10.274,0c0,3.359,0,6.717,0,10.466c3.951-0.178,7.187-0.324,10.375-0.468c0-3.81,0-6.904,0-9.998
	c6.225,0,12.45,0,18.675,0c0,3.339,0,6.679,0,10.617c7.293,0,13.969,0,20.871,0c0,7.051,0,13.466,0,20.51c3.576,0,6.915,0,10.254,0
	c0,2.391,0,4.783,0,7.878c-3.165,0.229-6.39,0.462-10.214,0.738c0,10.031,0,20.13,0,30.512c-3.564,0-6.558,0-10.256,0
	c-0.151-2.952-0.316-6.197-0.514-10.076c-3.459,0-6.8,0-10.141,0C219.577,326.112,219.577,322.653,219.725,319.047
	c3.173-0.148,6.491-0.148,9.788-0.148c0-3.521,0-6.732,0-9.857c-3.411,0-6.38,0-9.64,0
	C219.872,312.552,219.872,315.873,219.725,319.047z M209.377,300.175c3.888,0,6.895,0,9.672,0c0-3.605,0-6.825,0-9.688
	c-3.535,0-6.542,0-9.672,0C209.377,293.821,209.377,296.813,209.377,300.175z"/>
<path d="M70.175,109.606c10.203,0,20.405,0,31.125,0c0-10.018,0-19.535,0-29.052c2.767,0,5.533,0,8.3,0c0,3.359,0,6.717,0,10.466
	c3.951-0.178,7.187-0.324,10.375-0.468c0-3.81,0-6.904,0-9.998c3.458,0,6.917,0,10.375,0c0,3.359,0,6.717,0,10.466
	c3.951-0.178,7.187-0.324,10.375-0.468c0-3.81,0-6.904,0-9.998c3.458,0,6.917,0,10.375,0c0,3.316,0,6.631,0,10.376
	c6.604,0,12.64,0,18.675,0c0,3.093,0,6.186,0,9.924c-5.873,1.2-11.997-0.177-18.308,0.799c0,2.249,0,4.54,0,7.479
	c2.135,0.236,4.7,0.52,7.594,0.84c0,2.958,0,5.973,0,9.679c-5.641,0-11.659,0-18.004,0c0,3.671,0,6.67,0,10.196
	c-3.562,0-6.805,0-10.707,0c0-6.657,0-13.448,0.152-20.383c3.162-0.144,6.476-0.144,9.785-0.144c0-2.818,0-5.34,0-7.798
	c-3.41,0-6.371,0-9.633,0c0,2.807,0,5.446-0.152,7.941c-6.686,0.144-13.221,0.144-20.49,0.144
	c-0.166,3.171-0.335,6.396-0.524,10.013c3.381,0,6.395,0,9.026,0c0.631,0.596,1.093,0.829,1.094,1.064
	c0.036,9.889,0.031,19.778,0.031,30.047c-2.907,0-5.904,0-9.653,0c-0.2-2.803-0.432-6.047-0.689-9.642c-2.33,0-4.641,0-7.633,0
	c-0.212-3.565-0.405-6.827-0.637-10.73c-6.885,0-13.68,0-20.476,0c0-3.293,0-6.586,0-10.376c-3.786,0-7.081,0-10.375,0
	C70.175,116.523,70.175,113.065,70.175,109.606z"/>
<path d="M10.183,339.61c0-23.448,0-46.498,0-69.883c23.228,0,46.279,0,69.665,0c-0.091-0.091,0.201,0.122,0.383,0.406
	c0.168,0.261,0.306,0.598,0.306,0.901c0.014,22.747,0.013,45.495,0.013,68.576C57.14,339.61,34.089,339.61,10.183,339.61z
	 M20.737,279.946c0,17.063,0,33.192,0,49.624c16.197,0,32.034,0.002,47.872-0.015c0.296,0,0.626-0.176,0.878-0.357
	c0.268-0.193,0.462-0.49,0.327-0.339c0-16.532,0-32.661,0-48.914C53.319,279.946,37.186,279.946,20.737,279.946z"/>
<path d="M130.351,308.819c-13.016,0-26.031,0-39.231,0c0-6.412,0-12.178,0-18.31c9.307,0,18.521,0,28.324,0
	c1.185-6.953,0.015-13.752,0.832-21.117c3.343,0,6.709,0,10.075,0c0,3.293,0,6.586,0,10.376c3.786,0,7.081,0,10.375,0
	c0,3.293,0,6.586,0,10.376c3.786,0,7.081,0,10.375,0c0,6.036,0,12.072,0,18.676c-3.744,0-7.06,0-10.375,0c0-2.657,0-5.314,0-8.391
	c-3.953,0.177-7.187,0.322-10.375,0.465C130.351,304.01,130.351,306.415,130.351,308.819z"/>
<path d="M190.526,151.109c-9.997,0-19.994,0-30.762,0c-0.119-3.227-0.29-6.52-0.35-9.815c-0.061-3.404-0.014-6.811-0.014-10.574
	c6.745,0,13.204,0,20.198,0c1.064-4.932,0.406-9.683,0.525-14.362c0.121-4.78,0.027-9.566,0.027-15.052c3.643,0,7.009,0,10.375,0
	c0,6.074,0,12.148,0,18.676c10.055,0,19.553,0,29.05,0c0,3.459,0,6.917,0,10.376c-3.336,0-6.672,0-10.166,0
	c-0.177,3.855-0.326,7.097-0.463,10.085c-3,0-5.296,0-8.271,0c0-3.518,0-6.747,0-9.83c-3.673,0-6.649,0-10.15,0
	C190.526,137.606,190.526,144.357,190.526,151.109z"/>
<path d="M101.301,219.588c0-5.875,0-11.749,0-18.354c5.987,0,12.022,0,18.41,0c0-3.727,0-6.738,0-10.228c3.599,0,6.854,0,10.487,0
	c0,5.818,0,11.601,0,18.108c3.6,0,6.861,0,10.326,0c0,7.195,0,13.661,0,20.85c-6.908,0-13.727,0-20.547,0c0-3.316,0-6.631,0-10.376
	C113.372,219.588,107.336,219.588,101.301,219.588z"/>
<path d="M240.327,109.606c3.458,0,6.917,0,10.375,0c0,6.917,0,13.834,0,20.751c-3.293,0-6.586,0-10.375,0c0,3.786,0,7.081,0,10.376
	c-3.332,0-6.664,0-10.375,0c0,10.094,0,19.573,0,29.052c-6.917,0-13.833,0-20.75,0c0-3.459,0-6.917,0-10.376
	c3.332,0,6.664,0,10.375,0c0-10.094,0-19.573,0-29.052c3.293,0,6.586,0,10.375,0c0-3.786,0-7.081,0-10.376c3.293,0,6.586,0,10.375,0
	C240.327,116.196,240.327,112.901,240.327,109.606z"/>
<path d="M300.502,319.195c0,6.783,0,13.566,0,20.541c-16.676,0-32.738,0-49.301,0c0-6.478,0-13.16,0-20.541c2.491,0,5.145,0,7.8,0
	c0,3.339,0,6.679,0,9.935c7.304,0,13.96,0,20.918,0c0-3.426,0-6.412,0-9.935C286.987,319.195,293.745,319.195,300.502,319.195z"/>
<path d="M109.601,259.016c0,6.544,0,13.089,0,20.529c-5.937,0.471-11.95,0.102-18.316,0.251c0-6.775,0-13.229,0-20.27
	c-6.951-1.133-13.744-0.016-21.109-0.798c0-2.687,0-5.35,0-8.013c3.293,0,6.586,0,10.375,0c0-3.786,0-7.081,0-10.376
	c3.458,0,6.917,0,10.375,0c0,3.293,0,6.586,0,10.376c3.786,0,7.081,0,10.375,0c0,2.596,0,5.193,0,8.301
	C104.408,259.016,107.005,259.016,109.601,259.016z"/>
<path d="M151.101,59.803c2.401,0,4.802,0,7.792,0c0.274-2.492,0.556-5.05,0.875-7.952c2.928,0,5.936,0,9.538,0
	c0.234,2.152,0.512,4.717,0.863,7.952c3.278,0,6.63,0,9.982,0c0,10.169,0,20.338,0,31.127c-3.706,0-7.041,0-10.375,0
	c0-6.741,0-13.482,0-20.347c-3.73,0-6.948,0-10.123,0c-0.249,3.612-0.471,6.82-0.689,9.971c-3.1,0-5.482,0-7.864,0
	C151.101,73.637,151.101,66.72,151.101,59.803z"/>
<path d="M309.163,319.195c2.749,0,5.859,0,9.68,0c0.186-3.221,0.376-6.494,0.582-10.066c6.623,0,13.093,0,20.034,0
	c0,3.031,0,6.277,0,9.917c-3.062,0-6.074,0-9.812,0c0,7.05,0,13.795,0,20.697c-7.191,0-13.657,0-20.484,0
	C309.163,332.835,309.163,326.015,309.163,319.195z"/>
<path d="M130.351,319.54c0,2.761,0,5.867,0,9.684c3.214,0.193,6.481,0.39,10.057,0.605c0,3.128,0,6.145,0,9.64
	c-6.45,0-13.158,0-20.237,0c0-3.005,0-6.016,0-9.462c-3.596,0-6.848,0-10.472,0c0,3.147,0,6.155,0,9.551c-2.665,0-4.975,0-7.717,0
	c0.179,0.161-0.29-0.064-0.292-0.292c-0.039-6.46-0.032-12.92-0.032-19.726C111.204,319.54,120.778,319.54,130.351,319.54z"/>
<path d="M180.151,240.34c-6.535,0-13.069,0-20.319,0c-0.236,3.175-0.476,6.414-0.744,10.013c-5.726,0-11.482,0-17.983,0
	c-0.139-2.816-0.298-6.046-0.477-9.658c3.386,0,6.402,0,10.001,0c1.041-6.957,0.017-13.744,0.735-21.106c2.716,0,5.376,0,8.036,0
	c0,3.363,0,6.726,0,10.376c4.091,0,7.492-0.046,10.891,0.013c3.307,0.057,6.613,0.222,9.859,0.337
	C180.151,234.142,180.151,237.241,180.151,240.34z"/>
<path d="M300.816,91.11c6.173,0,11.928,0,18.022,0c0,3.146,0,6.162,0,9.892c-2.894,0.162-6.156,0.344-9.722,0.543
	c0,2.474,0,4.776,0,7.797c6.43,0,13.14,0,20.133,0c0,3.681,0,6.68,0,10.167c-9.216,0-18.664,0-28.433,0
	C300.816,110.38,300.816,101.174,300.816,91.11z"/>
<path d="M169.776,259.016c0-2.406,0-4.811,0-7.921c3.193-0.211,6.444-0.426,10.375-0.685c0-3.355,0-6.712,0-10.07
	c3.458,0,6.917,0,10.375,0c0,3.362,0,6.724,0,10.05c3.942,0.279,7.189,0.508,10.375,0.733c0,6.564,0,12.417,0,18.269
	c-3.458,0-6.917,0-10.375,0c0-3.319,0-6.639,0-10.376C183.223,259.016,176.5,259.016,169.776,259.016z"/>
<path d="M219.577,329.826c0,2.832,0,5.92,0,9.747c-12.816,0.852-25.69,0.113-38.984,0.423c0-3.424,0-6.662,0-10.169
	C193.639,329.826,206.608,329.826,219.577,329.826z"/>
<path d="M119.976,229.964c0,9.479,0,18.958,0,29.052c-3.711,0-7.043,0-10.375,0c0-2.596,0-5.193,0-8.301c-3.107,0-5.704,0-8.3,0
	c0-3.459,0-6.917,0-10.376c2.658,0,5.316,0,7.985,0c0.268-3.933,0.489-7.187,0.706-10.376
	C113.79,229.964,116.883,229.964,119.976,229.964z"/>
<path d="M41.125,101.306c0-3.33,0-6.661,0-10.165c6.321,0,12.033,0,18.423,0c0,3.103,0,6.346,0,10.165c3.967,0,7.297,0,10.628,0
	c0,2.767,0,5.534,0,8.301c-6.225,0-12.45,0-18.675,0c0-2.605,0-5.209,0-8.301C47.697,101.306,44.411,101.306,41.125,101.306z"/>
<path d="M219.577,90.93c6.744,0,13.489,0,20.75,0c0,6.553,0,12.615,0,18.676c-3.458,0-6.917,0-10.375,0c0-2.605,0-5.209,0-8.301
	c-3.804,0-7.089,0-10.375,0C219.577,97.847,219.577,94.389,219.577,90.93z"/>
<path d="M70.495,101.033c0-3.067,0-6.406,0-9.904c6.726,0,13.137,0,19.99,0c0,3.164,0,6.391,0,9.904
	C83.691,101.033,76.933,101.033,70.495,101.033z"/>
<path d="M140.726,180.161c-6.548,0-13.096,0-20.366,0c-0.146-3.19-0.293-6.429-0.473-10.376c7.228,0,14.034,0,20.839,0
	C140.726,173.244,140.726,176.702,140.726,180.161z"/>
<path d="M329.553,209.213c3.099,0,6.198,0,10.025,0c0.115,3.246,0.279,6.552,0.337,9.859c0.059,3.4,0.013,6.801,0.013,10.892
	c-3.65,0-7.013,0-10.375,0C329.553,223.047,329.553,216.13,329.553,209.213z"/>
<path d="M259.002,109.606c6.917,0,13.833,0,20.75,0c0,3.459,0,6.917,0,10.376c-6.723,0-13.446,0-20.75,0
	C259.002,116.245,259.002,112.926,259.002,109.606z"/>
<path d="M159.744,308.995c3.35,0,6.348,0,9.689,0c0,6.597,0,13.043,0,20.218c-2.848,0.126-6.084,0.269-9.689,0.428
	C159.744,322.797,159.744,316.351,159.744,308.995z"/>
<path d="M190.526,101.306c0-3.316,0-6.631,0-10.376c6.604,0,12.64,0,18.675,0c0,3.459,0,6.917,0,10.376
	C202.977,101.306,196.752,101.306,190.526,101.306z"/>
<path d="M308.802,240.34c-2.409,0-4.818,0-7.952,0c-0.115-3.247-0.278-6.552-0.335-9.86c-0.059-3.396-0.013-6.794-0.013-10.892
	c2.978,0,5.639,0,8.3,0C308.802,226.505,308.802,233.422,308.802,240.34z"/>
<path d="M209.202,159.409c-6.028,0-12.056,0-18.675,0c0-3.05,0-5.675,0-8.301c6.028,0,12.056,0,18.675,0
	C209.202,154.159,209.202,156.784,209.202,159.409z"/>
<path d="M250.702,109.606c0-5.856,0-11.712,0-18.299c2.5-0.14,5.046-0.283,8.3-0.466c0,6.534,0,12.649,0,18.764
	C256.235,109.606,253.469,109.606,250.702,109.606z"/>
<path d="M240.031,70.474c0,3.026,0,6.347,0,9.857c-3.26,0-6.23,0-9.64,0c0-3.124,0-6.331,0-9.857
	C233.688,70.474,237.006,70.474,240.031,70.474z"/>
<path d="M259.002,229.964c3.295,0,6.589,0,10.375,0c0,3.789,0,7.082,0,10.376c-3.293,0-6.586,0-10.375,0
	C259.002,236.553,259.002,233.259,259.002,229.964z"/>
<path d="M101.301,80.554c-3.094,0-6.188,0-9.998,0c-0.144-3.189-0.29-6.424-0.468-10.376c3.749,0,7.107,0,10.465,0
	C101.301,73.637,101.301,77.096,101.301,80.554z"/>
<path d="M130.351,269.391c0-3.094,0-6.189,0-9.998c3.189-0.144,6.424-0.29,10.375-0.468c0,3.749,0,7.107,0,10.466
	C137.268,269.391,133.809,269.391,130.351,269.391z"/>
<path d="M159.401,269.391c0-3.295,0-6.589,0-10.376c3.789,0,7.082,0,10.375,0c0,3.293,0,6.586,0,10.376
	C165.99,269.391,162.696,269.391,159.401,269.391z"/>
<path d="M140.726,308.819c0,3.295,0,6.589,0,10.376c-3.789,0-7.082,0-10.375,0c0-3.459,0-6.917,0-10.376
	C133.809,308.819,137.268,308.819,140.726,308.819z"/>
<path d="M150.744,150.934c-3.321,0-6.313,0-9.661,0c0-3.112,0-6.103,0-9.836c2.823-0.133,6.051-0.285,9.661-0.456
	C150.744,144.011,150.744,147.011,150.744,150.934z"/>
<path d="M329.848,140.438c0-3.026,0-6.347,0-9.857c3.26,0,6.23,0,9.64,0c0,3.124,0,6.331,0,9.857
	C336.192,140.438,332.873,140.438,329.848,140.438z"/>
<path d="M20.08,130.062c-3.026,0-6.347,0-9.856,0c0-3.258,0-6.225,0-9.641c3.125,0,6.336,0,9.856,0
	C20.08,123.718,20.08,127.037,20.08,130.062z"/>
<path d="M151.101,190.536c-3.295,0-6.589,0-10.375,0c0-3.789,0-7.083,0-10.376c3.458,0,6.917,0,10.375,0
	C151.101,183.619,151.101,187.078,151.101,190.536z"/>
<path d="M200.902,190.536c-3.094,0-6.188,0-9.998,0c-0.144-3.189-0.29-6.424-0.468-10.376c3.749,0,7.107,0,10.465,0
	C200.902,183.619,200.902,187.078,200.902,190.536z"/>
<path d="M329.848,200.617c0-3.026,0-6.347,0-9.857c3.26,0,6.23,0,9.64,0c0,3.125,0,6.336,0,9.857
	C336.191,200.617,332.873,200.617,329.848,200.617z"/>
<path d="M308.802,219.588c0-3.295,0-6.589,0-10.376c3.789,0,7.082,0,10.375,0c0,3.293,0,6.586,0,10.376
	C315.392,219.588,312.097,219.588,308.802,219.588z"/>
<path d="M300.502,308.819c2.614,0,5.229,0,8.3,0c0,3.807,0,7.091,0,10.376c-2.767,0-5.533,0-8.3,0
	C300.502,315.736,300.502,312.277,300.502,308.819z"/>
<path d="M280.056,109.319c0-2.341,0-4.967,0-7.798c3.262,0,6.223,0,9.633,0c0,2.457,0,4.98,0,7.798
	C286.38,109.319,283.066,109.319,280.056,109.319z"/>
<path d="M180.151,59.803c0-2.614,0-5.229,0-8.301c3.806,0,7.091,0,10.375,0c0,2.767,0,5.534,0,8.301
	C187.068,59.803,183.61,59.803,180.151,59.803z"/>
<path d="M41.125,109.606c-3.093,0-6.185,0-10.005,0c-0.137-2.492-0.276-5.026-0.456-8.301c3.747,0,7.104,0,10.462,0
	C41.125,104.073,41.125,106.839,41.125,109.606z"/>
<path d="M20.027,109.436c-3.352,0-6.341,0-9.678,0c0-2.467,0-4.769,0-7.601c2.851,0,6.082,0,9.678,0
	C20.027,103.943,20.027,106.245,20.027,109.436z"/>
<path d="M200.902,180.161c0-3.286,0-6.572,0-10.376c3.091,0,5.696,0,8.3,0c0,3.285,0,6.569,0,10.376
	C206.13,180.161,203.516,180.161,200.902,180.161z"/>
<path d="M209.202,200.912c-2.614,0-5.229,0-8.3,0c0-3.807,0-7.091,0-10.376c2.605,0,5.209,0,8.3,0
	C209.202,194.34,209.202,197.626,209.202,200.912z"/>
<path d="M300.79,200.609c0-3.011,0-6.324,0-9.841c2.568,0,4.851,0,7.574,0c0,3.111,0,6.318,0,9.841
	C305.756,200.609,303.131,200.609,300.79,200.609z"/>
<path d="M319.178,209.213c0-2.614,0-5.229,0-8.301c3.806,0,7.091,0,10.375,0c0,2.767,0,5.534,0,8.301
	C326.094,209.213,322.636,209.213,319.178,209.213z"/>
<path fill="#FFFFFF" d="M240.031,31.047c0,3.026,0,6.347,0,9.857c-3.26,0-6.23,0-9.64,0c0-3.124,0-6.331,0-9.857
	C233.688,31.047,237.007,31.047,240.031,31.047z"/>
<path fill="#FFFFFF" d="M209.202,101.306c0-3.459,0-6.917,0-10.376c3.458,0,6.917,0,10.375,0c0,3.459,0,6.917,0,10.376
	C216.118,101.306,212.66,101.306,209.202,101.306z"/>
<path fill="#FFFFFF" d="M201.189,20.679c2.341,0,4.967,0,7.797,0c0,3.263,0,6.228,0,9.633c-2.457,0-4.98,0-7.797,0
	C201.189,26.994,201.189,23.692,201.189,20.679z"/>
<path fill="#FFFFFF" d="M201.189,51.199c0-3.012,0-6.328,0-9.841c2.565,0,4.843,0,7.574,0c0,3.112,0,6.313,0,9.841
	C206.155,51.199,203.535,51.199,201.189,51.199z"/>
<path fill="#FFFFFF" d="M190.526,59.803c0-2.767,0-5.534,0-8.301c3.458,0,6.917,0,10.375,0c0,2.614,0,5.229,0,8.301
	C197.095,59.803,193.811,59.803,190.526,59.803z"/>
<path fill="#FFFFFF" d="M279.927,69.821c0-16.462,0-32.595,0-49.087c16.265,0,32.395,0,48.915,0
	c-0.141-0.129,0.155,0.068,0.346,0.338c0.179,0.253,0.349,0.584,0.349,0.881c0.017,15.837,0.015,31.674,0.015,47.867
	C313.113,69.821,296.983,69.821,279.927,69.821z M290.303,59.46c10.1,0,19.32,0,28.874,0c0-5.115,0.089-9.899-0.025-14.677
	c-0.113-4.689,0.511-9.445-0.356-13.689c-9.895,0-19.115,0-28.493,0C290.303,40.653,290.303,49.869,290.303,59.46z"/>
<path fill="#FFFFFF" d="M69.999,20.735c0,16.458,0,32.591,0,49.084c-16.261,0-32.39,0-48.914,0c0.144,0.131-0.152-0.065-0.344-0.335
	c-0.18-0.253-0.351-0.583-0.351-0.88c-0.017-15.837-0.015-31.675-0.015-47.869C36.812,20.735,52.941,20.735,69.999,20.735z
	 M31.086,30.934c0,10.076,0,19.298,0,28.35c9.809,0,19.274,0,28.378,0c0-9.74,0-18.962,0-28.35
	C49.914,30.934,40.698,30.934,31.086,30.934z"/>
<path fill="#FFFFFF" d="M151.101,59.803c0,6.917,0,13.834,0,20.751c-3.458,0-6.917,0-10.375,0c0-6.917,0-13.834,0-20.751
	C144.184,59.803,147.643,59.803,151.101,59.803z"/>
<path fill="#FFFFFF" d="M130.351,80.554c-3.458,0-6.917,0-10.375,0c0-6.724,0-13.447,0-20.751c3.737,0,7.056,0,10.375,0
	C130.351,66.72,130.351,73.637,130.351,80.554z"/>
<path fill="#FFFFFF" d="M119.976,80.554c0,3.094,0,6.189,0,9.998c-3.189,0.144-6.424,0.29-10.375,0.468c0-3.749,0-7.107,0-10.466
	C113.059,80.554,116.518,80.554,119.976,80.554z"/>
<path fill="#FFFFFF" d="M130.351,59.803c0-2.404,0-4.809,0-7.926c3.188-0.143,6.422-0.288,10.375-0.465c0,3.077,0,5.734,0,8.391
	C137.268,59.803,133.809,59.803,130.351,59.803z"/>
<path fill="#FFFFFF" d="M101.301,80.554c0-3.459,0-6.917,0-10.376c2.614,0,5.229,0,8.3,0c0,3.807,0,7.091,0,10.376
	C106.834,80.554,104.067,80.554,101.301,80.554z"/>
<path fill="#FFFFFF" d="M259.002,229.964c0,3.295,0,6.589,0,10.376c3.789,0,7.082,0,10.375,0c0,3.106,0,6.211,0,10.038
	c-5.978,0-12.011,0-18.675,0c0,17.189,0,33.665,0,50.14c-3.339,0-6.679,0-10.254,0c0-7.044,0-13.459,0-20.51
	c-6.902,0-13.578,0-20.871,0c0-3.938,0-7.278,0-10.617c3.33,0,6.661,0,10.267,0c0-3.589,0-6.566,0-10.218c3.514,0,6.739,0,10.484,0
	c0-6.718,0-12.776,0-18.834c3.093,0,6.186,0,9.984,0c0.217-3.189,0.438-6.437,0.706-10.376
	C253.686,229.964,256.344,229.964,259.002,229.964z"/>
<path fill="#FFFFFF" d="M229.952,169.785c0-9.479,0-18.958,0-29.052c3.711,0,7.043,0,10.375,0c0,3.314,0,6.627,0,10.208
	c3.533,0,6.499,0,10.016,0c0.208,2.8,0.398,5.348,0.63,8.468c2.775,0,5.402,0,8.029,0c0,3.459,0,6.917,0,10.376
	c-2.656,0-5.312,0-7.997,0c-0.257,3.933-0.469,7.183-0.655,10.02c-3.734,0-6.738,0-9.725,0c-0.251-3.595-0.478-6.837-0.7-10.02
	C236.13,169.785,233.041,169.785,229.952,169.785z"/>
<path fill="#FFFFFF" d="M200.902,269.391c0-5.852,0-11.705,0-18.269c-3.186-0.225-6.433-0.455-10.375-0.733c0-3.326,0-6.688,0-10.05
	c3.103,0,6.206,0,10.019,0c0.199-3.209,0.401-6.472,0.622-10.051c2.434,0,4.749,0,7.788,0c0,2.988,0,6.252,0,9.847
	c3.72,0,6.728,0,10.179,0c0,3.59,0,6.839,0,10.46c-3.12,0-6.126,0-9.533,0c0,2.657,0,4.961,0,8.017
	c2.779,0.207,6.022,0.45,9.975,0.745c0,3.301,0,6.667,0,10.034C213.352,269.391,207.127,269.391,200.902,269.391z"/>
<path fill="#FFFFFF" d="M279.94,151.46c0-4.07,0-7.068,0-10.396c6.612,0,13.059,0,20.177,0c0.874,4.242,0.247,8.983,0.36,13.658
	c0.115,4.771,0.026,9.548,0.026,14.69c-6.97,0-13.655,0-20.547,0c0-3.253,0-6.251,0-9.626c3.047,0,6.042,0,9.76,0
	c0.167-2.867,0.314-5.407,0.484-8.325C286.832,151.46,283.817,151.46,279.94,151.46z"/>
<path fill="#FFFFFF" d="M209.202,200.912c0-3.286,0-6.572,0-10.376c-3.091,0-5.696,0-8.3,0c0-3.459,0-6.917,0-10.376
	c2.614,0,5.229,0,8.3,0c0-3.807,0-7.091,0-10.376c6.917,0,13.833,0,20.75,0c0,3.363,0,6.726,0,10.047
	c-3.944,0.281-7.19,0.512-10.375,0.739c0,7.256,0,13.798,0,20.34C216.118,200.912,212.66,200.912,209.202,200.912z"/>
<path fill="#FFFFFF" d="M259.002,169.785c3.097,0,6.194,0,10.023,0c0.116,3.242,0.281,6.543,0.339,9.847
	c0.059,3.397,0.013,6.796,0.013,10.547c3.283,0,6.3,0,9.846,0c0,3.574,0,6.803,0,10.733c-6.625,0-13.423,0-20.221,0
	C259.002,190.536,259.002,180.161,259.002,169.785z"/>
<path fill="#FFFFFF" d="M190.526,240.34c-3.458,0-6.917,0-10.375,0c0-3.099,0-6.198,0-10.026c-3.246-0.115-6.552-0.28-9.859-0.337
	c-3.399-0.059-6.801-0.013-10.891-0.013c0-3.65,0-7.013,0-10.376c10.19,0,20.381,0,31.125,0
	C190.526,226.812,190.526,233.576,190.526,240.34z"/>
<path fill="#FFFFFF" d="M250.702,109.606c2.767,0,5.533,0,8.3,0c0,3.319,0,6.639,0,10.376c7.304,0,14.027,0,20.75,0
	c0,3.332,0,6.665,0,10.376c-10.093,0-19.572,0-29.05,0C250.702,123.441,250.702,116.523,250.702,109.606z"/>
<path fill="#FFFFFF" d="M259.002,200.912c0,2.405,0,4.81,0,7.786c-2.496,0.276-5.059,0.56-7.965,0.881c0,2.954,0,5.967,0,9.495
	c-3.564,0-6.795,0-10.71,0c0-5.957,0-12.06,0-18.162C246.552,200.912,252.777,200.912,259.002,200.912z"/>
<path fill="#FFFFFF" d="M229.952,200.912c0,5.857,0,11.714,0,18.293c-3.187,0.145-6.423,0.293-10.375,0.473
	c0-6.534,0-12.65,0-18.766C223.035,200.912,226.493,200.912,229.952,200.912z"/>
<path fill="#FFFFFF" d="M240.031,240.044c-3.026,0-6.347,0-9.856,0c0-3.26,0-6.23,0-9.641c3.125,0,6.336,0,9.856,0
	C240.031,233.7,240.031,237.019,240.031,240.044z"/>
<path fill="#FFFFFF" d="M240.327,140.733c0-3.295,0-6.589,0-10.376c3.789,0,7.082,0,10.375,0c0,3.295,0,6.589,0,10.376
	C246.913,140.733,243.62,140.733,240.327,140.733z"/>
<path fill="#FFFFFF" d="M151.101,180.161c-3.458,0-6.917,0-10.375,0c0-3.459,0-6.917,0-10.376c3.295,0,6.589,0,10.375,0
	C151.101,173.574,151.101,176.868,151.101,180.161z"/>
<path fill="#FFFFFF" d="M240.327,200.912c-3.458,0-6.917,0-10.375,0c0-3.359,0-6.717,0-10.466c3.951,0.178,7.187,0.324,10.375,0.468
	C240.327,194.724,240.327,197.818,240.327,200.912z"/>
<path fill="#FFFFFF" d="M259.305,159.122c0-2.341,0-4.967,0-7.798c3.262,0,6.223,0,9.633,0c0,2.457,0,4.98,0,7.798
	C265.629,159.122,262.316,159.122,259.305,159.122z"/>
<path fill="#FFFFFF" d="M151.101,190.536c0-3.459,0-6.917,0-10.376c2.404,0,4.808,0,7.926,0c0.143,3.188,0.288,6.422,0.465,10.376
	C156.415,190.536,153.758,190.536,151.101,190.536z"/>
<path fill="#FFFFFF" d="M30.75,190.536c0-6.917,0-13.834,0-20.751c3.095,0,6.191,0,9.924,0c1.195-5.879-0.174-12.01,0.794-18.317
	c2.935,0,5.95,0,9.666,0c0,5.603,0,11.612,0,18.317c3.345,0,6.005,0,8.665,0c0,3.459,0,6.917,0,10.376c-5.852,0-11.704,0-18.268,0
	c-0.224,3.177-0.455,6.436-0.733,10.376C37.474,190.536,34.112,190.536,30.75,190.536z"/>
<path fill="#FFFFFF" d="M51.5,109.606c6.225,0,12.45,0,18.675,0c0,3.459,0,6.917,0,10.376c-3.079,0-6.158,0-10.019,0
	c-0.823,6.56-0.049,13.28-0.468,20.333c-6.05,0-12.026,0-18.288,0c0-3.047,0-6.031,0-9.725c3.053,0,6.289,0,10.1,0
	C51.5,123.143,51.5,116.375,51.5,109.606z"/>
<path fill="#FFFFFF" d="M59.8,169.524c0-2.822,0-5.904,0-9.692c4.869-0.936,9.917-0.282,14.895-0.396
	c5.114-0.117,10.232-0.026,15.789-0.026c0,3.371,0,6.605,0,10.114C80.213,169.524,70.007,169.524,59.8,169.524z"/>
<path fill="#FFFFFF" d="M51.5,219.588c-3.317,0-6.633,0-10.22,0c0-3.545,0-6.513,0-10.141c-3.491,0-6.704,0-10.53,0
	c0-3.276,0-5.906,0-8.535c6.744,0,13.489,0,20.75,0C51.5,207.465,51.5,213.527,51.5,219.588z"/>
<path fill="#FFFFFF" d="M119.976,229.964c-3.093,0-6.185,0-9.984,0c-0.217,3.189-0.438,6.442-0.706,10.376c-2.669,0-5.327,0-7.985,0
	c0-6.917,0-13.834,0-20.751c6.036,0,12.071,0,18.675,0C119.976,223.333,119.976,226.648,119.976,229.964z"/>
<path fill="#FFFFFF" d="M30.478,250.396c-3.067,0-6.406,0-9.903,0c0-6.726,0-13.137,0-19.991c3.164,0,6.39,0,9.903,0
	C30.478,237.199,30.478,243.957,30.478,250.396z"/>
<path fill="#FFFFFF" d="M80.368,201.263c0,2.631,0,4.94,0,7.599c-6.57,0-13.01,0-20.202,0c-0.123-2.137-0.269-4.668-0.438-7.599
	C66.552,201.263,72.993,201.263,80.368,201.263z"/>
<path fill="#FFFFFF" d="M90.926,240.34c-3.458,0-6.917,0-10.375,0c0-3.459,0-6.917,0-10.376c3.295,0,6.589,0,10.375,0
	C90.926,233.753,90.926,237.046,90.926,240.34z"/>
<path fill="#FFFFFF" d="M80.551,240.34c0,3.295,0,6.589,0,10.376c-3.789,0-7.082,0-10.375,0c0-3.295,0-6.589,0-10.376
	C73.965,240.34,77.258,240.34,80.551,240.34z"/>
<path fill="#FFFFFF" d="M101.301,240.34c0,3.459,0,6.917,0,10.376c-3.295,0-6.589,0-10.375,0c0-3.789,0-7.082,0-10.376
	C94.384,240.34,97.842,240.34,101.301,240.34z"/>
<path fill="#FFFFFF" d="M30.455,169.49c-3.026,0-6.347,0-9.856,0c0-3.26,0-6.23,0-9.641c3.124,0,6.33,0,9.856,0
	C30.455,163.146,30.455,166.464,30.455,169.49z"/>
<path fill="#FFFFFF" d="M70.175,119.982c3.295,0,6.589,0,10.375,0c0,3.789,0,7.082,0,10.376c-3.295,0-6.589,0-10.375,0
	C70.175,126.568,70.175,123.275,70.175,119.982z"/>
<path fill="#FFFFFF" d="M30.75,190.536c0,3.459,0,6.917,0,10.376c-3.094,0-6.188,0-9.998,0c-0.144-3.189-0.29-6.424-0.468-10.376
	C24.033,190.536,27.392,190.536,30.75,190.536z"/>
<path fill="#FFFFFF" d="M80.255,229.668c-3.026,0-6.347,0-9.856,0c0-3.26,0-6.23,0-9.641c3.124,0,6.33,0,9.856,0
	C80.255,223.325,80.255,226.643,80.255,229.668z"/>
<path fill="#FFFFFF" d="M41.125,109.606c0-2.767,0-5.534,0-8.301c3.286,0,6.572,0,10.375,0c0,3.091,0,5.696,0,8.301
	C48.042,109.606,44.584,109.606,41.125,109.606z"/>
<path fill="#FFFFFF" d="M51.788,219.892c2.351,0,4.99,0,7.797,0c0,3.262,0,6.224,0,9.633c-2.457,0-4.98,0-7.797,0
	C51.788,226.216,51.788,222.902,51.788,219.892z"/>
<path fill="#FFFFFF" d="M259.174,289.796c0-10.272,0-20.18,0-30.434c10.066,0,19.976,0,30.626,0c0.786,4.59,0.202,9.68,0.304,14.712
	c0.104,5.126,0.023,10.255,0.023,15.722C279.889,289.796,269.979,289.796,259.174,289.796z M279.752,269.948
	c-3.463,0-6.921,0-10.012,0c0,3.56,0,6.564,0,9.924c3.614-0.18,6.839-0.341,10.012-0.499
	C279.752,275.913,279.752,273.171,279.752,269.948z"/>
<path fill="#FFFFFF" d="M300.502,308.819c0,3.459,0,6.917,0,10.376c-6.758,0-13.515,0-20.582,0c0,3.523,0,6.509,0,9.935
	c-6.958,0-13.614,0-20.918,0c0-3.256,0-6.596,0-9.935c3.087,0,6.174,0,9.966,0c0.225-3.177,0.456-6.421,0.711-10.015
	c2.969,0,5.97,0,9.527,0c0.313-2.849,0.595-5.407,0.914-8.312c2.928,0,5.936,0,9.538,0c0.234,2.152,0.512,4.717,0.863,7.952
	C293.798,308.819,297.15,308.819,300.502,308.819z"/>
<path fill="#FFFFFF" d="M319.178,209.213c3.458,0,6.917,0,10.375,0c0,6.917,0,13.834,0,20.751c-3.094,0-6.188,0-9.989,0
	c-0.215,3.192-0.433,6.441-0.698,10.376c-3.347,0-6.705,0-10.064,0c0-6.917,0-13.834,0-20.751c3.295,0,6.589,0,10.375,0
	C319.178,215.799,319.178,212.506,319.178,209.213z"/>
<path fill="#FFFFFF" d="M300.834,269.578c2.687,0,4.996,0,7.636,0c0,6.61,0,13.055,0,20.239c-2.173,0.111-4.716,0.24-7.636,0.388
	C300.834,283.346,300.834,276.901,300.834,269.578z"/>
<path fill="#FFFFFF" d="M159.401,269.391c3.295,0,6.589,0,10.375,0c0-3.789,0-7.082,0-10.376c6.723,0,13.446,0,20.75,0
	c0,3.737,0,7.056,0,10.376c-3.332,0-6.664,0-10.274,0c0,3.596,0,6.575,0,9.964c-6.94,0-13.582,0-20.852,0
	C159.401,276.056,159.401,272.724,159.401,269.391z"/>
<path fill="#FFFFFF" d="M130.351,269.391c3.458,0,6.917,0,10.375,0c0,3.459,0,6.917,0,10.376c-3.295,0-6.589,0-10.375,0
	C130.351,275.978,130.351,272.685,130.351,269.391z"/>
<path fill="#FFFFFF" d="M190.526,269.391c3.458,0,6.917,0,10.375,0c0,3.094,0,6.189,0,9.998c-3.189,0.144-6.424,0.29-10.375,0.468
	C190.526,276.109,190.526,272.75,190.526,269.391z"/>
<path fill="#FFFFFF" d="M151.101,290.143c-3.295,0-6.589,0-10.375,0c0-3.789,0-7.083,0-10.376c3.295,0,6.589,0,10.375,0
	C151.101,283.556,151.101,286.85,151.101,290.143z"/>
<path fill="#FFFFFF" d="M209.377,300.175c0-3.362,0-6.354,0-9.688c3.13,0,6.137,0,9.672,0c0,2.864,0,6.084,0,9.688
	C216.272,300.175,213.265,300.175,209.377,300.175z"/>
<path fill="#FFFFFF" d="M219.872,318.899c0-3.026,0-6.347,0-9.857c3.26,0,6.23,0,9.64,0c0,3.125,0,6.336,0,9.857
	C226.216,318.899,222.897,318.899,219.872,318.899z"/>
<path fill="#FFFFFF" d="M151.101,80.554c2.382,0,4.764,0,7.864,0c0.218-3.151,0.439-6.359,0.689-9.971c3.175,0,6.393,0,10.123,0
	c0,6.865,0,13.606,0,20.347c-6.036,0-12.071,0-18.675,0C151.101,87.186,151.101,83.87,151.101,80.554z"/>
<path fill="#FFFFFF" d="M140.726,80.554c0,3.094,0,6.189,0,9.998c-3.189,0.144-6.424,0.29-10.375,0.468c0-3.749,0-7.107,0-10.466
	C133.809,80.554,137.268,80.554,140.726,80.554z"/>
<path fill="#FFFFFF" d="M130.654,109.319c0-2.351,0-4.99,0-7.798c3.262,0,6.223,0,9.633,0c0,2.457,0,4.98,0,7.798
	C136.978,109.319,133.665,109.319,130.654,109.319z"/>
<path fill="#FFFFFF" d="M20.737,279.946c16.449,0,32.581,0,49.076,0c0,16.253,0,32.382,0,48.914
	c0.136-0.151-0.058,0.146-0.327,0.339c-0.252,0.181-0.582,0.356-0.878,0.357c-15.837,0.017-31.674,0.015-47.872,0.015
	C20.737,313.139,20.737,297.009,20.737,279.946z M59.455,319.021c0-10.109,0-19.329,0-28.878c-5.118,0-9.902-0.091-14.68,0.026
	c-4.687,0.114-9.441-0.517-13.68,0.359c0,9.898,0,19.117,0,28.493C40.656,319.021,49.871,319.021,59.455,319.021z"/>
<path fill="#FFFFFF" d="M140.726,308.819c-3.458,0-6.917,0-10.375,0c0-2.404,0-4.809,0-7.926c3.188-0.143,6.422-0.288,10.375-0.465
	C140.726,303.505,140.726,306.162,140.726,308.819z"/>
<path fill="#FFFFFF" d="M209.202,159.409c0-2.625,0-5.25,0-8.301c-6.619,0-12.647,0-18.675,0c0-6.752,0-13.503,0-20.496
	c3.501,0,6.477,0,10.15,0c0,3.083,0,6.312,0,9.83c2.976,0,5.272,0,8.271,0c0.137-2.988,0.286-6.231,0.463-10.085
	c3.495,0,6.83,0,10.166,0c0,9.479,0,18.958,0,29.052C215.866,159.409,212.534,159.409,209.202,159.409z"/>
<path fill="#FFFFFF" d="M190.526,101.306c6.225,0,12.45,0,18.675,0c0,2.605,0,5.209,0,8.301c3.804,0,7.089,0,10.375,0
	c0,3.459,0,6.917,0,10.376c-9.498,0-18.995,0-29.05,0C190.526,113.454,190.526,107.38,190.526,101.306z"/>
<path fill="#FFFFFF" d="M229.952,119.982c0,3.295,0,6.589,0,10.376c-3.789,0-7.082,0-10.375,0c0-3.459,0-6.917,0-10.376
	C223.035,119.982,226.493,119.982,229.952,119.982z"/>
<path fill="#FFFFFF" d="M229.952,109.606c3.458,0,6.917,0,10.375,0c0,3.295,0,6.589,0,10.376c-3.789,0-7.082,0-10.375,0
	C229.952,116.523,229.952,113.065,229.952,109.606z"/>
<path fill="#FFFFFF" d="M101.301,250.715c2.596,0,5.193,0,8.3,0c0,3.108,0,5.704,0,8.301c-2.596,0-5.193,0-8.3,0
	C101.301,255.908,101.301,253.312,101.301,250.715z"/>
<path fill="#FFFFFF" d="M219.577,101.306c3.286,0,6.572,0,10.375,0c0,3.091,0,5.696,0,8.301c-3.458,0-6.917,0-10.375,0
	C219.577,106.839,219.577,104.073,219.577,101.306z"/>
<path d="M219.577,101.306c0,2.767,0,5.534,0,8.301c-3.286,0-6.572,0-10.375,0c0-3.091,0-5.696,0-8.301
	C212.66,101.306,216.118,101.306,219.577,101.306z"/>
<path d="M290.303,59.46c0-9.591,0-18.808,0-28.366c9.378,0,18.598,0,28.493,0c0.867,4.245,0.243,9,0.356,13.689
	c0.115,4.778,0.025,9.562,0.025,14.677C309.623,59.46,300.404,59.46,290.303,59.46z"/>
<path d="M31.086,30.934c9.612,0,18.828,0,28.378,0c0,9.388,0,18.61,0,28.35c-9.104,0-18.569,0-28.378,0
	C31.086,50.232,31.086,41.011,31.086,30.934z"/>
<path d="M140.726,80.554c-3.458,0-6.917,0-10.375,0c0-6.917,0-13.834,0-20.751c3.458,0,6.917,0,10.375,0
	C140.726,66.72,140.726,73.637,140.726,80.554z"/>
<path d="M240.327,200.912c0-3.094,0-6.189,0-9.998c-3.189-0.144-6.424-0.29-10.375-0.468c0,3.749,0,7.107,0,10.466
	c-3.458,0-6.917,0-10.375,0c0-6.542,0-13.085,0-20.34c3.185-0.227,6.431-0.458,10.375-0.739c0-3.322,0-6.685,0-10.047
	c3.089,0,6.179,0,9.973,0c0.222,3.183,0.449,6.425,0.7,10.02c2.987,0,5.992,0,9.725,0c0.185-2.837,0.398-6.086,0.655-10.02
	c2.685,0,5.341,0,7.997,0c0,10.376,0,20.751,0,31.127C252.777,200.912,246.552,200.912,240.327,200.912z"/>
<path d="M279.752,269.948c0,3.223,0,5.965,0,9.425c-3.173,0.158-6.397,0.319-10.012,0.499c0-3.36,0-6.364,0-9.924
	C272.831,269.948,276.289,269.948,279.752,269.948z"/>
<path d="M59.455,319.021c-9.584,0-18.8,0-28.36,0c0-9.376,0-18.595,0-28.493c4.239-0.876,8.993-0.245,13.68-0.359
	c4.779-0.116,9.562-0.026,14.68-0.026C59.455,299.692,59.455,308.912,59.455,319.021z"/>
<path d="M219.577,109.606c3.458,0,6.917,0,10.375,0c0,3.459,0,6.917,0,10.376c-3.458,0-6.917,0-10.375,0
	C219.577,116.523,219.577,113.065,219.577,109.606z"/>
</svg>
